<svg width="76" height="76" viewBox="0 0 76 76" fill="none" xmlns="http://www.w3.org/2000/svg">
<g clip-path="url(#clip0)">
<path d="M69.7589 50.179L64.315 51.9937C63.7485 50.2956 62.4228 48.9584 60.7296 48.3773C60.2386 45.143 57.3667 42.8137 54.1007 43.0007C51.9871 39.6073 48.168 37.6635 44.1807 37.9513C43.7486 36.2624 42.4805 34.9131 40.8216 34.3771C42.0059 30.5241 44.1204 27.0217 46.9783 24.179C47.1311 24.3538 47.2742 24.5377 47.4358 24.7038C49.986 27.3065 53.4702 28.7823 57.1139 28.8032C57.3706 28.8032 57.6286 28.7958 57.8852 28.7798C61.1688 28.6308 64.218 27.0358 66.2132 24.4237C71.7276 17.17 75.7849 2.59283 75.9544 1.97563C76.0519 1.62235 75.9917 1.24413 75.789 0.938644C75.5864 0.633159 75.2615 0.430541 74.898 0.383041C74.1515 0.284033 56.5065 -1.93081 47.6856 5.51899C47.0625 6.0449 46.4974 6.63569 45.9997 7.28154C42.5265 6.32441 38.904 6.03095 35.3221 6.41644C34.9482 6.45949 34.6129 6.66671 34.4068 6.98169C34.2008 7.29668 34.1454 7.68692 34.2559 8.04688C34.3406 8.32149 36.3531 14.8076 39.1221 18.0559C40.3492 19.4478 42.1275 20.228 43.9828 20.1885C44.1645 20.1885 44.3486 20.1745 44.5325 20.1607C44.7945 20.8168 45.1046 21.4526 45.4605 22.063C42.0147 25.4071 39.5226 29.6094 38.2408 34.2371C37.042 34.4911 35.9746 35.1675 35.233 36.143C31.7476 34.6034 27.6679 35.4718 25.1115 38.2972C24.3659 38.05 23.5857 37.9237 22.8002 37.923C19.0955 37.9292 15.9343 40.6039 15.3146 44.2564H12.9684C11.912 42.6743 10.1356 41.724 8.2334 41.723H5.70001C2.55343 41.7264 0.00341407 44.2764 0 47.423V70.223C0.00341407 73.3696 2.55343 75.9196 5.70001 75.923H8.2334C9.52302 75.9175 10.7717 75.4705 11.7719 74.6564H44.7132C46.5717 74.6566 48.3946 74.1453 49.9821 73.1789L73.7247 58.7265C75.7832 57.4707 76.5716 54.8701 75.5567 52.6829C74.5419 50.4955 72.0471 49.418 69.7589 50.179ZM46.0473 14.351C46.1241 11.6955 47.3111 9.19386 49.3196 7.45491C54.1692 3.36055 62.4087 2.55335 68.1521 2.55335C70.2067 2.55335 71.9421 2.65666 73.0882 2.74944C71.9173 6.62248 68.4433 17.3044 64.1968 22.8913C62.6441 24.9118 60.277 26.142 57.7311 26.2516C54.5593 26.4192 51.4693 25.2116 49.2516 22.9377C49.0904 22.7721 48.9459 22.5905 48.7956 22.4142C51.4496 20.0074 54.3928 17.9403 57.5575 16.2604C58.1858 15.9528 58.4459 15.194 58.1383 14.5657C57.8307 13.9373 57.0719 13.6773 56.4436 13.9848C53.1624 15.6889 50.1072 17.7972 47.3497 20.2602C46.4079 18.4378 45.9588 16.4007 46.0473 14.351ZM43.517 14.2266C43.4682 15.3745 43.5611 16.524 43.7939 17.6492C42.748 17.6413 41.7536 17.1938 41.0542 16.4161C39.3844 14.0985 38.0824 11.5371 37.1942 8.82232C39.7022 8.67656 42.2178 8.91183 44.6554 9.51998C43.9774 11.0012 43.5908 12.5992 43.517 14.2266ZM11.4 70.223C11.3979 71.971 9.9814 73.3876 8.2334 73.3896H5.70001C3.95201 73.3876 2.53532 71.971 2.53339 70.223V47.423C2.53546 45.675 3.95201 44.2584 5.70001 44.2564H8.2334C9.9814 44.2584 11.3981 45.675 11.4 47.423V70.223ZM22.8 40.4562C23.5494 40.4608 24.2881 40.6337 24.9616 40.9621C25.5141 41.2242 26.1748 41.0549 26.5331 40.5595C28.4822 37.8352 32.2212 37.1104 35.0472 38.9087C35.3683 39.1124 35.7638 39.1609 36.1247 39.041C36.4855 38.9211 36.7734 38.6454 36.9087 38.2902C37.2653 37.3443 38.1556 36.7058 39.1659 36.6713C39.1997 36.674 39.234 36.6814 39.2677 36.6814C39.2995 36.6814 39.328 36.6678 39.3595 36.6654C40.6966 36.7059 41.7689 37.784 41.8023 39.1213C41.7974 39.1565 41.7843 39.2766 41.782 39.3117C41.7597 39.7044 41.921 40.0851 42.2187 40.3422C42.5163 40.5993 42.9165 40.7035 43.3017 40.6242C43.8495 40.5123 44.4074 40.4561 44.9667 40.4561C48.0595 40.4517 50.8917 42.1874 52.2921 44.9451C52.5526 45.4547 53.1227 45.7259 53.6825 45.6063C54.7925 45.3788 55.9462 45.6561 56.8316 46.3633C57.717 47.0704 58.2425 48.1343 58.2661 49.2672C58.263 49.3092 58.2606 49.3519 58.2606 49.3859C58.2608 50.0163 58.7245 50.5506 59.3485 50.6396C60.5408 50.8157 61.5304 51.6515 61.9036 52.7975L46.3126 57.9949C45.925 58.124 45.5193 58.1898 45.1108 58.1896H44.383C44.9848 56.5399 44.811 54.7068 43.9097 53.1996L43.7971 53.0134C42.4189 50.7294 39.9485 49.3303 37.2807 49.323H30.6555C28.3184 49.32 26.0514 48.5248 24.2244 47.0673C22.3923 45.6098 20.1972 44.6797 17.8756 44.3773C18.4079 42.0856 20.4474 40.4617 22.8 40.4562ZM73.4267 55.0972C73.3118 55.7086 72.9411 56.2418 72.4079 56.5624L48.6647 71.0154C47.4741 71.7401 46.107 72.1233 44.7132 72.1232H13.5832C13.8086 71.5147 13.927 70.872 13.9334 70.2232V47.4231C13.9242 47.211 13.9028 46.9995 13.8694 46.7897H16.2113C18.5485 46.7927 20.8154 47.5879 22.6424 49.0454C24.9185 50.8618 27.7435 51.8528 30.6555 51.8565H37.2807C39.0596 51.8617 40.7068 52.7949 41.6257 54.3181L41.7382 54.5042C42.4297 55.6568 42.3555 57.1133 41.5505 58.1898H33.8517C31.3508 58.1872 28.9054 58.9278 26.8263 60.3173L25.8979 60.9359C25.5191 61.1858 25.3028 61.6194 25.3313 62.0723C25.3597 62.5253 25.6284 62.9285 26.0355 63.129C26.4427 63.3297 26.926 63.2971 27.3026 63.0435L28.2309 62.425C29.8946 61.3133 31.8509 60.7209 33.8518 60.723H45.1108C45.7916 60.723 46.4677 60.6133 47.1135 60.3982L63.2746 55.0111C63.2952 55.0122 63.3125 55.023 63.3333 55.023C63.6174 55.0179 63.891 54.9155 64.1088 54.7329L70.5605 52.5824C71.4634 52.2809 72.4578 52.5935 73.0257 53.3574C73.4017 53.8535 73.5475 54.4867 73.4267 55.0972Z" fill="#4F4F4F"/>
<mask id="mask0" mask-type="alpha" maskUnits="userSpaceOnUse" x="0" y="0" width="76" height="76">
<path d="M69.7589 50.179L64.315 51.9937C63.7485 50.2956 62.4228 48.9584 60.7296 48.3773C60.2386 45.143 57.3667 42.8137 54.1007 43.0007C51.9871 39.6073 48.168 37.6635 44.1807 37.9513C43.7486 36.2624 42.4805 34.9131 40.8216 34.3771C42.0059 30.5241 44.1204 27.0217 46.9783 24.179C47.1311 24.3538 47.2742 24.5377 47.4358 24.7038C49.986 27.3065 53.4702 28.7823 57.1139 28.8032C57.3706 28.8032 57.6286 28.7958 57.8852 28.7798C61.1688 28.6308 64.218 27.0358 66.2132 24.4237C71.7276 17.17 75.7849 2.59283 75.9544 1.97563C76.0519 1.62235 75.9917 1.24413 75.789 0.938644C75.5864 0.633159 75.2615 0.430541 74.898 0.383041C74.1515 0.284033 56.5065 -1.93081 47.6856 5.51899C47.0625 6.0449 46.4974 6.63569 45.9997 7.28154C42.5265 6.32441 38.904 6.03095 35.3221 6.41644C34.9482 6.45949 34.6129 6.66671 34.4068 6.98169C34.2008 7.29668 34.1454 7.68692 34.2559 8.04688C34.3406 8.32149 36.3531 14.8076 39.1221 18.0559C40.3492 19.4478 42.1275 20.228 43.9828 20.1885C44.1645 20.1885 44.3486 20.1745 44.5325 20.1607C44.7945 20.8168 45.1046 21.4526 45.4605 22.063C42.0147 25.4071 39.5226 29.6094 38.2408 34.2371C37.042 34.4911 35.9746 35.1675 35.233 36.143C31.7476 34.6034 27.6679 35.4718 25.1115 38.2972C24.3659 38.05 23.5857 37.9237 22.8002 37.923C19.0955 37.9292 15.9343 40.6039 15.3146 44.2564H12.9684C11.912 42.6743 10.1356 41.724 8.2334 41.723H5.70001C2.55343 41.7264 0.00341407 44.2764 0 47.423V70.223C0.00341407 73.3696 2.55343 75.9196 5.70001 75.923H8.2334C9.52302 75.9175 10.7717 75.4705 11.7719 74.6564H44.7132C46.5717 74.6566 48.3946 74.1453 49.9821 73.1789L73.7247 58.7265C75.7832 57.4707 76.5716 54.8701 75.5567 52.6829C74.5419 50.4955 72.0471 49.418 69.7589 50.179ZM46.0473 14.351C46.1241 11.6955 47.3111 9.19386 49.3196 7.45491C54.1692 3.36055 62.4087 2.55335 68.1521 2.55335C70.2067 2.55335 71.9421 2.65666 73.0882 2.74944C71.9173 6.62248 68.4433 17.3044 64.1968 22.8913C62.6441 24.9118 60.277 26.142 57.7311 26.2516C54.5593 26.4192 51.4693 25.2116 49.2516 22.9377C49.0904 22.7721 48.9459 22.5905 48.7956 22.4142C51.4496 20.0074 54.3928 17.9403 57.5575 16.2604C58.1858 15.9528 58.4459 15.194 58.1383 14.5657C57.8307 13.9373 57.0719 13.6773 56.4436 13.9848C53.1624 15.6889 50.1072 17.7972 47.3497 20.2602C46.4079 18.4378 45.9588 16.4007 46.0473 14.351ZM43.517 14.2266C43.4682 15.3745 43.5611 16.524 43.7939 17.6492C42.748 17.6413 41.7536 17.1938 41.0542 16.4161C39.3844 14.0985 38.0824 11.5371 37.1942 8.82232C39.7022 8.67656 42.2178 8.91183 44.6554 9.51998C43.9774 11.0012 43.5908 12.5992 43.517 14.2266ZM11.4 70.223C11.3979 71.971 9.9814 73.3876 8.2334 73.3896H5.70001C3.95201 73.3876 2.53532 71.971 2.53339 70.223V47.423C2.53546 45.675 3.95201 44.2584 5.70001 44.2564H8.2334C9.9814 44.2584 11.3981 45.675 11.4 47.423V70.223ZM22.8 40.4562C23.5494 40.4608 24.2881 40.6337 24.9616 40.9621C25.5141 41.2242 26.1748 41.0549 26.5331 40.5595C28.4822 37.8352 32.2212 37.1104 35.0472 38.9087C35.3683 39.1124 35.7638 39.1609 36.1247 39.041C36.4855 38.9211 36.7734 38.6454 36.9087 38.2902C37.2653 37.3443 38.1556 36.7058 39.1659 36.6713C39.1997 36.674 39.234 36.6814 39.2677 36.6814C39.2995 36.6814 39.328 36.6678 39.3595 36.6654C40.6966 36.7059 41.7689 37.784 41.8023 39.1213C41.7974 39.1565 41.7843 39.2766 41.782 39.3117C41.7597 39.7044 41.921 40.0851 42.2187 40.3422C42.5163 40.5993 42.9165 40.7035 43.3017 40.6242C43.8495 40.5123 44.4074 40.4561 44.9667 40.4561C48.0595 40.4517 50.8917 42.1874 52.2921 44.9451C52.5526 45.4547 53.1227 45.7259 53.6825 45.6063C54.7925 45.3788 55.9462 45.6561 56.8316 46.3633C57.717 47.0704 58.2425 48.1343 58.2661 49.2672C58.263 49.3092 58.2606 49.3519 58.2606 49.3859C58.2608 50.0163 58.7245 50.5506 59.3485 50.6396C60.5408 50.8157 61.5304 51.6515 61.9036 52.7975L46.3126 57.9949C45.925 58.124 45.5193 58.1898 45.1108 58.1896H44.383C44.9848 56.5399 44.811 54.7068 43.9097 53.1996L43.7971 53.0134C42.4189 50.7294 39.9485 49.3303 37.2807 49.323H30.6555C28.3184 49.32 26.0514 48.5248 24.2244 47.0673C22.3923 45.6098 20.1972 44.6797 17.8756 44.3773C18.4079 42.0856 20.4474 40.4617 22.8 40.4562ZM73.4267 55.0972C73.3118 55.7086 72.9411 56.2418 72.4079 56.5624L48.6647 71.0154C47.4741 71.7401 46.107 72.1233 44.7132 72.1232H13.5832C13.8086 71.5147 13.927 70.872 13.9334 70.2232V47.4231C13.9242 47.211 13.9028 46.9995 13.8694 46.7897H16.2113C18.5485 46.7927 20.8154 47.5879 22.6424 49.0454C24.9185 50.8618 27.7435 51.8528 30.6555 51.8565H37.2807C39.0596 51.8617 40.7068 52.7949 41.6257 54.3181L41.7382 54.5042C42.4297 55.6568 42.3555 57.1133 41.5505 58.1898H33.8517C31.3508 58.1872 28.9054 58.9278 26.8263 60.3173L25.8979 60.9359C25.5191 61.1858 25.3028 61.6194 25.3313 62.0723C25.3597 62.5253 25.6284 62.9285 26.0355 63.129C26.4427 63.3297 26.926 63.2971 27.3026 63.0435L28.2309 62.425C29.8946 61.3133 31.8509 60.7209 33.8518 60.723H45.1108C45.7916 60.723 46.4677 60.6133 47.1135 60.3982L63.2746 55.0111C63.2952 55.0122 63.3125 55.023 63.3333 55.023C63.6174 55.0179 63.891 54.9155 64.1088 54.7329L70.5605 52.5824C71.4634 52.2809 72.4578 52.5935 73.0257 53.3574C73.4017 53.8535 73.5475 54.4867 73.4267 55.0972Z" fill="#333333"/>
</mask>
<g mask="url(#mask0)">
<path d="M34 -1H76V35H55H44.5L43 35.5C43 35.5 41 34 39.5 34C38 34 36 35 36 35H34V-1Z" fill="#59AA47"/>
</g>
</g>
<defs>
<clipPath id="clip0">
<rect width="76" height="76" fill="white"/>
</clipPath>
</defs>
</svg>
