<svg width="66" height="66" viewBox="0 0 66 66" fill="none" xmlns="http://www.w3.org/2000/svg">
<g clip-path="url(#clip0)">
<path d="M65.7312 28.1479L54.6845 13.798C54.2757 13.2673 53.5299 13.1364 52.9644 13.4959L45.8323 18.0318H36.5304C36.4101 18.0318 36.2902 18.0575 36.1744 18.0912L28.9622 20.1673L21.4786 18.1204L14.207 13.4959C13.651 13.1424 12.9189 13.2623 12.5055 13.7749L0.287092 28.9093C-0.151995 29.4531 -0.0794848 30.2472 0.45024 30.7029L6.85426 36.2141L12.5997 43.9566C10.9193 45.7467 10.9521 48.57 12.7004 50.3188C13.4753 51.0932 14.4607 51.5308 15.4744 51.6325C15.4391 51.8622 15.421 52.0953 15.421 52.332C15.421 53.5535 15.8968 54.7021 16.7604 55.5657C17.6245 56.4298 18.7731 56.9056 19.9946 56.9056C20.0113 56.9056 20.0274 56.9046 20.0435 56.9041C20.043 56.9353 20.0415 56.966 20.0415 56.9973C20.0415 58.2188 20.5173 59.3674 21.3809 60.2315C22.245 61.0951 23.3935 61.5709 24.6151 61.5709C24.8563 61.5709 25.095 61.5513 25.3292 61.515C25.4283 62.5322 25.8669 63.5221 26.6444 64.2996C27.5357 65.1914 28.7069 65.637 29.8781 65.637C31.0494 65.637 32.2206 65.1914 33.1124 64.2996L33.8118 63.6002L34.1054 63.8368C34.9896 64.6934 36.1376 65.1214 37.2857 65.1214C38.4569 65.1214 39.6282 64.6757 40.5194 63.784C41.4293 62.8741 41.875 61.6731 41.8563 60.4782C43.0507 60.4964 44.2522 60.0512 45.1621 59.1418C46.071 58.2324 46.5166 57.0325 46.499 55.8381C47.7432 55.8577 48.9235 55.3799 49.8042 54.4992C50.7141 53.5893 51.1598 52.3884 51.1411 51.1935C52.3365 51.2116 53.537 50.7664 54.4469 49.8566C55.9998 48.3036 56.1997 45.9033 55.0481 44.1313L59.2431 35.3455L65.5499 29.9184C66.0711 29.4697 66.1507 28.6923 65.7312 28.1479ZM13.793 16.3001L19.0218 19.625L7.64734 33.4824L3.08929 29.5594L13.793 16.3001ZM14.5307 45.6807L16.1088 44.1026C16.1567 44.0548 16.207 44.0094 16.2584 43.9671C16.567 43.7154 16.9407 43.5653 17.3365 43.5296C17.3475 43.5286 17.3591 43.5286 17.3702 43.5281C17.4266 43.5235 17.483 43.5205 17.5399 43.521C18.0807 43.5286 18.5832 43.7496 18.9558 44.1429C19.687 44.9158 19.6477 46.1787 18.8682 46.9582L17.338 48.4884C16.564 49.2624 15.3047 49.2624 14.5307 48.4884C13.7568 47.714 13.7568 46.4546 14.5307 45.6807ZM18.5908 53.7353C18.2156 53.3607 18.0092 52.8622 18.0092 52.332C18.0092 51.8017 18.2156 51.3032 18.5908 50.9281L21.6508 47.8681C22.2369 47.282 23.1584 47.1213 23.9077 47.4783C24.6801 47.8464 25.1146 48.6848 25.0013 49.5282C24.9409 49.9784 24.7314 50.4024 24.4102 50.7242L21.3985 53.7353C21.0234 54.1105 20.5249 54.3169 19.9946 54.3169C19.4644 54.3169 18.9659 54.1105 18.5908 53.7353ZM23.2113 58.4006C22.8361 58.026 22.6297 57.5275 22.6297 56.9973C22.6297 56.467 22.8361 55.9685 23.2113 55.5934L26.2708 52.5334C26.8977 51.907 27.9032 51.772 28.6706 52.2187C29.3716 52.6265 29.7387 53.4272 29.6183 54.2248C29.5523 54.6633 29.3439 55.0757 29.0302 55.3895L26.019 58.4006C25.6439 58.7758 25.1454 58.9822 24.6151 58.9822C24.0849 58.9822 23.5864 58.7758 23.2113 58.4006ZM28.4743 62.4692C27.7003 61.6953 27.7003 60.4359 28.4743 59.662L30.0524 58.0839C30.1002 58.0361 30.15 57.9912 30.2014 57.9489C30.2029 57.9479 30.2039 57.9469 30.2049 57.9459C30.4617 57.7375 30.7634 57.598 31.0851 57.537C31.0927 57.536 31.1002 57.535 31.1078 57.534C31.1632 57.524 31.2196 57.5159 31.276 57.5109C31.2986 57.5089 31.3213 57.5089 31.3444 57.5073C31.3908 57.5048 31.4366 57.5018 31.4834 57.5023C32.0237 57.5099 32.5268 57.7304 32.8994 58.1242C32.9452 58.1725 32.988 58.2229 33.0273 58.2747C33.6225 59.0527 33.5424 60.2083 32.8037 60.9475L31.2815 62.4697C30.5076 63.2437 29.2482 63.2432 28.4743 62.4692ZM52.6165 48.0262C51.8426 48.8006 50.5832 48.8001 49.8093 48.0262C49.7811 47.998 49.7514 47.9718 49.7211 47.9471L41.3996 39.538C40.8966 39.0299 40.0773 39.0259 39.5693 39.5289C39.0612 40.0315 39.0572 40.8507 39.5597 41.3588L47.9713 49.8581C47.9723 49.8591 47.9734 49.8601 47.9744 49.8611C48.7483 50.635 48.7483 51.8949 47.9744 52.6688C47.5992 53.044 47.1007 53.2504 46.5705 53.2504C46.0398 53.2504 45.5413 53.044 45.1666 52.6688L39.5396 46.9834C39.037 46.4753 38.2178 46.4713 37.7097 46.9738C37.2016 47.4768 37.1976 48.2961 37.7001 48.8042L43.2411 54.4025C43.2693 54.4378 43.2995 54.4715 43.3317 54.5037C44.1057 55.2777 44.1057 56.5375 43.3317 57.3115C42.5573 58.0854 41.2974 58.0849 40.5235 57.311L37.4524 54.2076C36.9493 53.6996 36.1301 53.695 35.622 54.1981C35.1139 54.7006 35.1099 55.5199 35.6124 56.0279L38.5979 59.0441C38.6261 59.0794 38.6563 59.1136 38.6891 59.1459C39.463 59.9198 39.463 61.1797 38.6891 61.9536C37.9151 62.728 36.6558 62.7275 35.8818 61.9536C35.7927 61.8645 35.688 61.796 35.5883 61.7195C35.5037 61.655 35.4815 61.6102 35.5238 61.5075C35.5666 61.4032 35.6306 61.3091 35.6734 61.2043C35.7207 61.0875 35.759 60.9672 35.7962 60.8463C35.9946 60.2068 36.053 59.519 35.9639 58.8553C35.7927 57.5819 35.0923 56.4328 34.0308 55.7057C33.4573 55.3134 32.7936 55.0561 32.1058 54.9594C32.4391 53.4891 32.0388 51.8949 30.9975 50.7946C30.1405 49.8893 28.9828 49.3812 27.7376 49.3641C27.6923 49.3636 27.6469 49.3636 27.6011 49.3641C27.6288 48.1757 27.1968 46.9949 26.3775 46.1293C25.52 45.224 24.3624 44.7159 23.1176 44.6988C22.7475 44.6938 22.3739 44.733 22.0133 44.8161C21.8593 43.7441 21.319 42.7521 20.5007 42.0426C19.6875 41.3387 18.6648 40.9479 17.5756 40.9328C16.4291 40.9162 15.3027 41.3392 14.4512 42.1081L9.4485 35.3672L21.4166 20.7867L25.231 21.83L20.2494 30.6203C19.6472 31.6833 19.4951 32.917 19.8209 34.0942C20.1467 35.272 20.9111 36.2519 21.9741 36.8541C22.0405 36.8919 22.1075 36.9277 22.1755 36.9619C22.1805 36.9644 22.1856 36.9669 22.1911 36.9694C22.3698 37.0586 22.5536 37.1351 22.7399 37.1996C23.6075 37.5002 24.5446 37.5329 25.4485 37.2832C26.6258 36.9574 27.6057 36.1925 28.2079 35.13L31.4452 29.4174L37.2253 29.8272L52.617 45.2184C53.3904 45.9929 53.3904 47.2522 52.6165 48.0262ZM53.1528 42.094L38.7138 27.6555C38.6866 27.6278 38.6579 27.6016 38.6282 27.5769C38.4202 27.4037 38.1624 27.299 37.8905 27.2798L30.8132 26.7778C30.3238 26.7441 29.8373 27.0044 29.5956 27.4309L25.9561 33.854C25.6947 34.3153 25.2692 34.6471 24.7581 34.7886C24.2475 34.9301 23.7118 34.8636 23.25 34.6023C22.7888 34.341 22.457 33.9155 22.3155 33.4044C22.174 32.8933 22.2399 32.3575 22.5018 31.8963L27.3604 23.3215L29.3293 22.755C29.3424 22.751 29.355 22.7459 29.368 22.7419L36.7162 20.62H45.5946L56.6786 34.7101L53.1528 42.094ZM58.374 32.6788L48.1239 19.6416L53.3552 16.3147L62.933 28.7557L58.374 32.6788Z" fill="#4F4F4F"/>
<path d="M39.9845 15.6017C40.3159 15.6017 40.6472 15.4753 40.9 15.2225L49.7401 6.38236C50.2457 5.8768 50.2457 5.05754 49.7401 4.55199C49.2346 4.04643 48.4153 4.04643 47.9097 4.55199L39.0696 13.3921C38.564 13.8977 38.564 14.717 39.0696 15.2225C39.3224 15.4753 39.6537 15.6017 39.9845 15.6017Z" fill="#59AA47"/>
<path d="M25.1002 15.2225C25.3529 15.4753 25.6843 15.6017 26.0156 15.6017C26.3464 15.6017 26.6778 15.4753 26.9305 15.2225C27.4361 14.717 27.4361 13.8977 26.9305 13.3921L18.0904 4.55199C17.5848 4.04643 16.7656 4.04643 16.26 4.55199C15.7545 5.05754 15.7545 5.8768 16.26 6.38236L25.1002 15.2225Z" fill="#59AA47"/>
<path d="M33.0002 15.6019C33.7147 15.6019 34.2942 15.0223 34.2942 14.3078V6.99188C34.2942 6.27736 33.7147 5.69778 33.0002 5.69778C32.2856 5.69778 31.7061 6.27736 31.7061 6.99188V14.3078C31.7061 15.0223 32.2856 15.6019 33.0002 15.6019Z" fill="#59AA47"/>
<path d="M31.8054 2.3012C32.0109 2.7992 32.523 3.126 33.0633 3.0978C33.597 3.0701 34.0658 2.70957 34.231 2.2015C34.3966 1.6894 34.2164 1.10579 33.7873 0.779499C33.3498 0.446156 32.7395 0.427525 32.2818 0.730152C31.7712 1.06752 31.5733 1.73925 31.8054 2.3012Z" fill="#59AA47"/>
</g>
<defs>
<clipPath id="clip0">
<rect width="66" height="66" fill="white"/>
</clipPath>
</defs>
</svg>
