<svg width="55" height="68" viewBox="0 0 55 68" fill="none" xmlns="http://www.w3.org/2000/svg">
<g clip-path="url(#clip0)">
<path d="M0.947292 62.6119C1.41817 64.8309 2.96451 66.669 5.07019 67.5126C7.17586 68.3562 9.56355 68.0943 11.4363 66.8143C13.0622 65.7156 15.1219 65.4791 16.9545 66.1808C20.5005 67.4327 24.2398 68.0485 28 67.9998C31.7598 68.0503 35.4991 67.4364 39.0454 66.1865C40.8784 65.4848 42.9384 65.7212 44.5648 66.82C47.3776 68.7421 51.1786 68.286 53.4569 65.753C55.7352 63.2201 55.7875 59.3922 53.5793 56.7979C52.525 55.6511 51.693 54.3183 51.1256 52.8675C50.0514 49.7123 49.5132 46.3995 49.5333 43.0665V11.3331C49.5283 9.86903 48.5848 8.57326 47.193 8.11898C46.7106 4.52937 43.4826 1.95931 39.8762 2.29365C38.5886 0.840211 36.7417 0.00563511 34.8 -0.000218896C33.1993 -0.0046129 31.6501 0.564735 30.4332 1.60458C28.8716 0.977793 27.1283 0.977793 25.5667 1.60458C24.3498 0.564735 22.8006 -0.0046129 21.2 -0.000218896C18.7684 -0.00388888 16.5206 1.29296 15.3066 3.39978C12.4814 3.50472 10.0145 5.34381 9.10729 8.02152C7.56303 8.37534 6.4678 9.74884 6.46663 11.3331V43.0665C6.48695 46.3946 5.95067 49.7027 4.87996 52.8539C4.31216 54.3089 3.47814 55.6452 2.42063 56.7945C1.05415 58.4004 0.509911 60.5492 0.947292 62.6119ZM15.5333 5.66645C15.5751 5.66843 15.6168 5.67335 15.658 5.68118C15.7373 5.69138 15.8166 5.70158 15.8971 5.70838C16.3816 5.74826 16.8376 5.47467 17.0304 5.02838C17.7408 3.355 19.3821 2.26781 21.2 2.26645C22.4602 2.26597 23.6623 2.79627 24.5116 3.72731C24.8615 4.10164 25.4191 4.19458 25.8716 3.95398C27.1903 3.21515 28.7983 3.21515 30.117 3.95398C30.5709 4.19753 31.1319 4.10442 31.4827 3.72731C32.3333 2.79481 33.5378 2.26437 34.8 2.26645C36.2595 2.27307 37.6269 2.98061 38.4754 4.16818C38.7325 4.5272 39.1749 4.70413 39.6087 4.62152C41.9569 4.15087 44.2602 5.60924 44.839 7.93312H11.6165C12.426 6.53469 13.9175 5.67158 15.5333 5.66645ZM4.14443 58.2622C5.37458 56.8961 6.34753 55.3188 7.01629 53.6065C8.17302 50.2136 8.75338 46.651 8.73329 43.0665V11.3331C8.73329 10.7072 9.2407 10.1998 9.86663 10.1998H46.1333C46.7592 10.1998 47.2666 10.7072 47.2666 11.3331V43.0665C47.2475 46.6512 47.829 50.2138 48.987 53.6065C49.6429 55.3212 50.6152 56.8975 51.8532 58.2531C52.7747 59.3267 53.1371 60.7715 52.8313 62.1529V62.1609C52.4691 63.8902 51.124 65.2451 49.3973 65.6198C48.1699 65.8932 46.884 65.6471 45.8443 64.9398C43.6084 63.4261 40.7757 63.095 38.251 64.0524C34.9576 65.2041 31.4887 65.7728 28 65.7331C24.5123 65.774 21.0442 65.2068 17.7512 64.0569C16.8046 63.7021 15.8019 63.5201 14.791 63.5197C13.1375 63.5162 11.5217 64.0128 10.1556 64.9443C9.11575 65.6544 7.8277 65.9006 6.59923 65.6243C5.05175 65.2748 3.79956 64.1418 3.29753 62.6369C2.79551 61.132 3.1167 59.4741 4.14443 58.2656V58.2622Z" fill="#4F4F4F"/>
<path d="M16.6938 45.1213C16.7006 45.1292 16.712 45.1326 16.7199 45.1417C19.6951 48.1655 23.7596 49.8684 28.0017 49.8684C32.2437 49.8684 36.3083 48.1655 39.2834 45.1417C39.2902 45.1337 39.2993 45.1315 39.3061 45.1247C39.3129 45.1179 39.3118 45.1111 39.3163 45.1043C45.4335 38.88 45.3757 28.8839 39.1869 22.7308C32.9981 16.5777 23.0018 16.5777 16.813 22.7308C10.6242 28.8839 10.5664 38.88 16.6836 45.1043C16.6882 45.1065 16.6893 45.1145 16.6938 45.1213ZM19.4705 44.5773C20.321 44.2163 21.2607 44.1203 22.1667 44.3019C23.356 44.5647 24.6008 44.3593 25.6426 43.7284C27.0948 42.8636 28.904 42.8636 30.3562 43.7284C31.3978 44.3611 32.6435 44.5669 33.8332 44.303C34.7392 44.1213 35.6789 44.2173 36.5294 44.5784C31.5573 48.6087 24.4427 48.6087 19.4705 44.5784V44.5773ZM28 20.3999C33.3262 20.3918 38.1654 23.4983 40.3757 28.3443C42.586 33.1903 41.7591 38.881 38.2612 42.8977C36.7857 42.0252 35.0374 41.7357 33.3595 42.0862C32.7364 42.2251 32.0837 42.1196 31.536 41.7915C30.8111 41.3584 30.0109 41.0661 29.1775 40.9302C29.4217 38.595 30.0242 36.3114 30.9636 34.1597C31.2102 34.2139 31.4615 34.2435 31.7139 34.2481C33.2731 34.2256 34.693 33.3459 35.4074 31.9599C36.2665 30.3358 35.914 27.9853 35.4686 26.3091C35.3407 25.81 35.0078 25.3882 34.5522 25.1477C34.0965 24.9072 33.5604 24.8705 33.0762 25.0465C31.434 25.6257 29.2976 26.6581 28.4352 28.2879C27.6053 29.8275 27.8234 31.7213 28.9814 33.032C28.3051 34.5699 27.7702 36.1662 27.3834 37.8011C26.9403 37.1834 26.4858 36.6315 26.1039 36.1985C27.0791 34.8836 27.2058 33.1233 26.4292 31.6822C25.569 30.0581 23.4326 29.0257 21.8074 28.4533C21.3236 28.2715 20.7854 28.3034 20.3265 28.5411C19.8675 28.7788 19.5309 29.2 19.4002 29.7C18.9526 31.3853 18.6001 33.7358 19.458 35.3576C20.1711 36.7462 21.5919 37.6283 23.1527 37.6515C23.5115 37.6454 23.8675 37.5882 24.2101 37.4815C25.1804 38.5206 25.9908 39.6982 26.615 40.9755C25.855 41.1216 25.1262 41.3993 24.4617 41.7961C23.9142 42.1235 23.262 42.2285 22.6393 42.0896C20.9614 41.7389 19.213 42.0284 17.7376 42.9011C14.2373 38.8844 13.4092 33.1919 15.6201 28.3445C17.8309 23.497 22.6722 20.3902 28 20.3999ZM33.3912 27.3438C33.7654 28.4979 33.7698 29.7401 33.4037 30.8968C33.178 31.5145 32.6141 31.945 31.9588 31.9999C31.3034 32.0549 30.6758 31.7244 30.3503 31.1529C30.0248 30.5814 30.0607 29.873 30.4423 29.3373C31.1933 28.3815 32.2244 27.6845 33.3912 27.3438ZM24.4232 32.7339C24.8084 33.2693 24.8469 33.9799 24.5218 34.5538C24.1966 35.1277 23.5673 35.4599 22.91 35.4047C22.2528 35.3495 21.6877 34.9169 21.4629 34.2968C21.0972 33.14 21.1019 31.8978 21.4765 30.7438C22.6415 31.0852 23.6714 31.7807 24.4232 32.7339Z" fill="#59AA47"/>
<path d="M26.8667 14.7333H29.1334C29.7593 14.7333 30.2667 14.2258 30.2667 13.5999C30.2667 12.974 29.7593 12.4666 29.1334 12.4666H26.8667C26.2408 12.4666 25.7334 12.974 25.7334 13.5999C25.7334 14.2258 26.2408 14.7333 26.8667 14.7333Z" fill="#4F4F4F"/>
<path d="M20.0669 14.7333H22.3336C22.9595 14.7333 23.4669 14.2258 23.4669 13.5999C23.4669 12.974 22.9595 12.4666 22.3336 12.4666H20.0669C19.441 12.4666 18.9336 12.974 18.9336 13.5999C18.9336 14.2258 19.441 14.7333 20.0669 14.7333Z" fill="#4F4F4F"/>
<path d="M13.2666 14.7333H15.5333C16.1592 14.7333 16.6666 14.2258 16.6666 13.5999C16.6666 12.974 16.1592 12.4666 15.5333 12.4666H13.2666C12.6407 12.4666 12.1333 12.974 12.1333 13.5999C12.1333 14.2258 12.6407 14.7333 13.2666 14.7333Z" fill="#4F4F4F"/>
<path d="M40.4668 14.7333H42.7335C43.3594 14.7333 43.8668 14.2258 43.8668 13.5999C43.8668 12.974 43.3594 12.4666 42.7335 12.4666H40.4668C39.8409 12.4666 39.3335 12.974 39.3335 13.5999C39.3335 14.2258 39.8409 14.7333 40.4668 14.7333Z" fill="#4F4F4F"/>
<path d="M33.6665 14.7333H35.9332C36.5591 14.7333 37.0665 14.2258 37.0665 13.5999C37.0665 12.974 36.5591 12.4666 35.9332 12.4666H33.6665C33.0406 12.4666 32.5332 12.974 32.5332 13.5999C32.5332 14.2258 33.0406 14.7333 33.6665 14.7333Z" fill="#4F4F4F"/>
</g>
<defs>
<clipPath id="clip0">
<rect width="55" height="68" fill="white"/>
</clipPath>
</defs>
</svg>
