<svg width="156" height="37" viewBox="0 0 156 37" fill="none" xmlns="http://www.w3.org/2000/svg">
<path d="M47.4436 18.575V26.2494C47.4436 26.8223 46.9951 27.1225 46.1276 27.1225C45.2601 27.1225 44.8115 26.8223 44.8115 26.2494V6.65898C44.8115 6.02652 45.1098 5.69653 45.7086 5.69653H48.8189C51.3007 5.69653 52.9742 7.35103 52.9742 10.149V14.1203C52.9742 16.9182 51.3007 18.575 48.8189 18.575H47.4436ZM50.3444 9.638C50.3444 8.58389 49.7456 7.92392 48.8189 7.92392H47.4436V16.3499H48.8189C49.7456 16.3499 50.3444 15.6877 50.3444 14.6336V9.638Z" fill="#333333"/>
<path d="M55.3993 32.2969C54.9803 31.8455 55.0395 31.3643 55.5791 30.8532C56.0869 30.4018 56.565 30.372 57.0136 30.8235C57.5213 31.2749 57.9995 31.5155 58.4776 31.5155C59.4635 31.5155 60.1215 30.9128 60.1215 29.7098V26.5497C59.7322 27.0012 59.1356 27.2418 58.3273 27.2418C56.3237 27.2418 54.978 25.7064 54.978 23.1491V12.0144C54.978 11.4438 55.397 11.1711 56.203 11.1711C57.0113 11.1711 57.428 11.4415 57.428 12.0144V23.5707C57.2481 25.6171 60.2991 25.6171 60.1193 23.5707V12.0144C60.1193 11.4438 60.5382 11.1711 61.3442 11.1711C62.1502 11.1711 62.5692 11.4415 62.5692 12.0144V29.5883C62.5692 32.1457 60.9549 33.6214 58.5937 33.6214C57.2822 33.6214 56.2076 33.17 55.3993 32.2969Z" fill="#333333"/>
<path d="M64.4932 15.1447C64.4932 12.5873 66.0187 11.052 68.291 11.052C70.5634 11.052 72.0889 12.5873 72.0889 15.1447V16.5884C72.0889 17.1613 71.6699 17.4317 70.8639 17.4317C70.0556 17.4317 69.639 17.1613 69.639 16.5884V14.7231C69.8188 12.6767 66.7678 12.6767 66.9477 14.7231V23.5707C66.7678 25.6171 69.8188 25.6171 69.639 23.5707V21.7054C69.639 21.1325 70.0579 20.8621 70.8639 20.8621C71.6699 20.8621 72.0889 21.1325 72.0889 21.7054V23.1491C72.0889 25.7065 70.5634 27.2418 68.291 27.2418C66.0187 27.2418 64.4932 25.7065 64.4932 23.1491V15.1447Z" fill="#333333"/>
<path d="M74.0835 15.1447C74.0835 12.5873 75.609 11.052 77.8813 11.052C80.1537 11.052 81.6792 12.5873 81.6792 15.1447V16.5884C81.6792 17.1613 81.2602 17.4317 80.4542 17.4317C79.6459 17.4317 79.2293 17.1613 79.2293 16.5884V14.7231C79.4091 12.6767 76.3581 12.6767 76.538 14.7231V23.5707C76.3581 25.6171 79.4091 25.6171 79.2293 23.5707V21.7054C79.2293 21.1325 79.6482 20.8621 80.4542 20.8621C81.2602 20.8621 81.6792 21.1325 81.6792 21.7054V23.1491C81.6792 25.7065 80.1537 27.2418 77.8813 27.2418C75.609 27.2418 74.0835 25.7065 74.0835 23.1491V15.1447Z" fill="#333333"/>
<path d="M87.3778 16.7396C88.1247 15.8665 88.514 14.7826 88.514 13.4283V12.0442C88.514 11.4713 88.933 11.1711 89.739 11.1711C90.545 11.1711 90.964 11.4713 90.964 12.0442V13.7904C90.964 15.6259 90.3947 17.1315 89.2904 18.2749C90.0373 19.0266 90.5473 19.8401 90.816 20.6811C91.1142 21.5244 91.2645 22.6678 91.2645 24.1115V26.2793C91.2645 26.8522 90.8456 27.1226 90.0395 27.1226C89.2312 27.1226 88.8146 26.8522 88.8146 26.2793V24.1734C88.8146 22.3379 88.366 20.9538 87.4689 20.0509L86.4215 21.0729C86.2121 21.2837 86.1233 21.5244 86.1233 21.7948V26.2793C86.1233 26.8522 85.7043 27.1226 84.8983 27.1226C84.0923 27.1226 83.6733 26.8522 83.6733 26.2793V12.0144C83.6733 11.4438 84.0923 11.1711 84.8983 11.1711C85.7043 11.1711 86.1233 11.4415 86.1233 12.0144V18.1237C86.1529 18.0022 86.3328 17.7914 86.631 17.4912L87.3778 16.7396Z" fill="#333333"/>
<path d="M93.2046 15.1447C93.2046 12.5873 94.7301 11.052 97.0025 11.052C99.2748 11.052 100.8 12.5873 100.8 15.1447V23.1491C100.8 25.7065 99.2748 27.2418 97.0025 27.2418C94.7301 27.2418 93.2046 25.7065 93.2046 23.1491V15.1447ZM98.3481 14.7254C98.528 12.679 95.4769 12.679 95.6568 14.7254V23.573C95.4769 25.6194 98.528 25.6194 98.3481 23.573V14.7254Z" fill="#333333"/>
<path d="M110.387 16.2882C110.387 18.0046 109.578 19.2076 107.994 19.8699L105.96 20.743C105.482 20.9538 105.243 21.254 105.243 21.6458V23.5707C105.063 25.6171 108.114 25.6171 107.934 23.5707V22.1569C107.934 21.5863 108.353 21.3136 109.159 21.3136C109.965 21.3136 110.384 21.584 110.384 22.1569V23.1491C110.384 25.7065 108.859 27.2418 106.586 27.2418C104.314 27.2418 102.789 25.7065 102.789 23.1491V15.1447C102.789 12.5873 104.314 11.052 106.586 11.052C108.859 11.052 110.384 12.5873 110.384 15.1447V16.2882H110.387ZM107.934 14.7254C108.114 12.679 105.063 12.679 105.243 14.7254V18.7585C105.332 18.6072 105.512 18.4881 105.78 18.3666L106.678 17.945C107.545 17.4935 107.932 17.0719 107.932 15.988V14.7254H107.934Z" fill="#333333"/>
<path d="M123.961 11.4141C124.56 11.4141 124.858 11.744 124.858 12.3765V26.2793C124.858 26.8522 124.439 27.1226 123.633 27.1226C122.825 27.1226 122.408 26.8522 122.408 26.2793V13.52H119.717V26.2793C119.717 26.8522 119.298 27.1226 118.492 27.1226C117.686 27.1226 117.267 26.8522 117.267 26.2793V12.3765C117.267 11.744 117.565 11.4141 118.164 11.4141H123.961Z" fill="#333333"/>
<path d="M126.889 15.1447C126.889 12.5873 128.415 11.052 130.687 11.052C132.959 11.052 134.485 12.5873 134.485 15.1447V23.1491C134.485 25.7065 132.959 27.2418 130.687 27.2418C128.415 27.2418 126.889 25.7065 126.889 23.1491V15.1447ZM132.033 14.7254C132.213 12.679 129.161 12.679 129.341 14.7254V23.573C129.161 25.6194 132.213 25.6194 132.033 23.573V14.7254Z" fill="#333333"/>
<path d="M140.323 13.5199V20.9216C140.323 23.8113 139.605 25.6468 137.69 26.969C137.54 27.0905 137.331 27.1501 137.092 27.1501C136.463 27.1501 135.867 26.3686 135.867 25.6445C135.867 25.3443 135.987 25.1037 136.226 24.9525C137.333 24.1711 137.87 22.9061 137.87 21.1898V12.3719C137.87 11.7394 138.169 11.4094 138.767 11.4094H144.569C145.168 11.4094 145.466 11.7394 145.466 12.3719V26.2747C145.466 26.8476 145.047 27.118 144.241 27.118C143.433 27.118 143.016 26.8476 143.016 26.2747V13.5154H140.323V13.5199Z" fill="#333333"/>
<path d="M155.093 16.2882C155.093 18.0046 154.285 19.2076 152.7 19.8699L150.667 20.743C150.189 20.9538 149.95 21.254 149.95 21.6458V23.5707C149.77 25.6171 152.821 25.6171 152.641 23.5707V22.1569C152.641 21.5863 153.06 21.3136 153.866 21.3136C154.672 21.3136 155.091 21.584 155.091 22.1569V23.1491C155.091 25.7065 153.565 27.2418 151.293 27.2418C149.021 27.2418 147.495 25.7065 147.495 23.1491V15.1447C147.495 12.5873 149.021 11.052 151.293 11.052C153.565 11.052 155.091 12.5873 155.091 15.1447V16.2882H155.093ZM152.641 14.7254C152.821 12.679 149.77 12.679 149.95 14.7254V18.7585C150.038 18.6072 150.218 18.4881 150.487 18.3666L151.384 17.945C152.252 17.4935 152.639 17.0719 152.639 15.988V14.7254H152.641Z" fill="#333333"/>
<path d="M5.52588 36.5478H32.58C34.6383 36.5478 36.3141 34.8613 36.3141 32.7897V13.3528C29.4083 13.9257 22.8667 16.4578 17.3475 20.7064C12.0014 24.8197 7.93256 30.2782 5.52588 36.5478Z" fill="#447839"/>
<path d="M0.00227912 5.96719C8.68637 6.15281 17.0449 9.34493 23.6775 15.0096C27.678 13.1764 31.9221 12.0742 36.3142 11.7259V3.75814C36.3142 1.68658 34.6407 0 32.5801 0H3.73411C1.6758 0 0 1.68658 0 3.75814V5.96719H0.00227912Z" fill="#8DC63F"/>
<path d="M22.0838 15.7865C15.836 10.658 8.06494 7.77063 0.00244141 7.5896V32.7897C0.00244141 34.8613 1.67596 36.5479 3.73655 36.5479H3.80259C7.06766 27.6223 13.6684 20.1358 22.0838 15.7865Z" fill="#59AA47"/>
</svg>
