<svg width="21" height="20" viewBox="0 0 21 20" fill="none" xmlns="http://www.w3.org/2000/svg">
<g clip-path="url(#clip0)">
<path fill-rule="evenodd" clip-rule="evenodd" d="M6.1709 17.4996C6.1709 16.5791 6.91477 15.8329 7.83237 15.8329C8.74998 15.8329 9.49385 16.5791 9.49385 17.4996C9.49385 18.42 8.74998 19.1662 7.83237 19.1662C6.91477 19.1662 6.1709 18.42 6.1709 17.4996Z" fill="#59AA47"/>
<path fill-rule="evenodd" clip-rule="evenodd" d="M15.3086 17.4996C15.3086 16.5791 16.0525 15.8329 16.9701 15.8329C17.8877 15.8329 18.6315 16.5791 18.6315 17.4996C18.6315 18.42 17.8877 19.1662 16.9701 19.1662C16.0525 19.1662 15.3086 18.42 15.3086 17.4996Z" fill="#59AA47"/>
<path fill-rule="evenodd" clip-rule="evenodd" d="M0.355469 0.832845C0.355469 0.372608 0.727403 -0.000488281 1.18621 -0.000488281H4.50916C4.90511 -0.000488281 5.24603 0.279833 5.32374 0.669298L6.02146 4.16618H19.4624C19.71 4.16618 19.9447 4.27695 20.1025 4.46831C20.2603 4.65966 20.3248 4.91166 20.2785 5.15562L18.9481 12.1535C18.8341 12.729 18.522 13.246 18.0664 13.6139C17.613 13.98 17.0463 14.1753 16.4646 14.1662H8.40419C7.82245 14.1753 7.25574 13.98 6.80239 13.6139C6.34695 13.2461 6.03492 12.7294 5.92085 12.1542C5.9208 12.154 5.9209 12.1545 5.92085 12.1542L4.53307 5.19885C4.52744 5.17584 4.52276 5.15246 4.51908 5.12874L3.82821 1.66618H1.18621C0.727403 1.66618 0.355469 1.29308 0.355469 0.832845ZM6.354 5.83285L7.55035 11.8288C7.58834 12.0207 7.69237 12.193 7.84424 12.3156C7.99612 12.4383 8.18616 12.5034 8.38109 12.4997L8.39701 12.4995H16.4718L16.4877 12.4997C16.6826 12.5034 16.8727 12.4383 17.0245 12.3156C17.1757 12.1936 17.2795 12.0223 17.3179 11.8315L18.4583 5.83285H6.354Z" fill="#59AA47"/>
</g>
<defs>
<clipPath id="clip0">
<rect width="19.9377" height="20" fill="white" transform="translate(0.355469 -0.000488281)"/>
</clipPath>
</defs>
</svg>
